<svg xmlns="http://www.w3.org/2000/svg" xmlns:svg="http://www.w3.org/2000/svg" xmlns:xlink="http://www.w3.org/1999/xlink" id="svg4306" width="17" height="15" version="1.1"><defs id="defs4308"><linearGradient id="linearGradient4892"><stop id="stop4894" offset="0" stop-color="#3a422f" stop-opacity="1"/><stop id="stop4896" offset="1" stop-color="#242a1d" stop-opacity="1"/></linearGradient><linearGradient id="linearGradient4882"><stop id="stop4884" offset="0" stop-color="#849572" stop-opacity="1"/><stop id="stop4886" offset="1" stop-color="#7c9561" stop-opacity="0"/></linearGradient><linearGradient id="linearGradient4888" x1="8" x2="8" y1="16" y2="8" gradientUnits="userSpaceOnUse" xlink:href="#linearGradient4882"/><radialGradient id="radialGradient4900" cx="8" cy="8" r="6" fx="8" fy="8" gradientUnits="userSpaceOnUse" xlink:href="#linearGradient4892"/></defs><metadata id="metadata4311"/><g id="layer1" transform="translate(0,-1037.3622)"><path id="path4878" fill="url(#linearGradient4888)" fill-opacity="1" stroke="#000" stroke-dasharray="none" stroke-linejoin="miter" stroke-miterlimit="4" stroke-opacity="1" stroke-width="0" d="M 16,8 A 8,8 0 1 1 0,8 8,8 0 1 1 16,8 z" opacity=".45" transform="translate(0,1036.3622)"/><path id="path4880" fill="#080a06" fill-opacity="1" stroke="#000" stroke-dasharray="none" stroke-linejoin="miter" stroke-miterlimit="4" stroke-opacity="1" stroke-width="0" d="M 15,8 A 7,7 0 1 1 1,8 7,7 0 1 1 15,8 z" transform="translate(0,1036.3622)"/><path id="path4890" fill="url(#radialGradient4900)" fill-opacity="1" stroke="#000" stroke-dasharray="none" stroke-linejoin="miter" stroke-miterlimit="4" stroke-opacity="1" stroke-width="0" d="M 14,8 A 6,6 0 1 1 2,8 6,6 0 1 1 14,8 z" transform="translate(0,1036.3622)"/><g id="layer1-9" fill="#c9d7de" fill-opacity="1" transform="matrix(0.74999997,0,0,0.75000005,2.0000002,1038.3622)"><path id="path3039" fill="#c9d7de" fill-opacity="1" fill-rule="nonzero" stroke="none" stroke-width="1" d="m 4.8814786,4.0082925 c -0.2252363,0 -0.4518548,0.077632 -0.6237043,0.2494817 -0.3436992,0.343699 -0.3436992,0.9037095 0,1.2474086 L 6.7525914,7.9999999 4.2577743,10.494817 c -0.3436989,0.3437 -0.3436989,0.903709 0,1.247409 0.3437,0.343698 0.9037086,0.343698 1.2474085,0 L 8,9.2474085 10.494817,11.742226 c 0.3437,0.343698 0.903709,0.343698 1.247409,0 0.343699,-0.3437 0.343699,-0.903709 0,-1.247409 L 9.2474085,7.9999999 11.742226,5.5051828 c 0.343699,-0.3436991 0.343699,-0.9037096 0,-1.2474086 -0.343699,-0.3436989 -0.90371,-0.3436989 -1.247409,0 L 8,6.7525914 5.5051828,4.2577742 C 5.3333333,4.0859246 5.1067148,4.0082925 4.8814786,4.0082925 z" color="#bebebe" display="inline" enable-background="accumulate" overflow="visible" visibility="visible" style="marker:none"/></g></g></svg>