<svg xmlns="http://www.w3.org/2000/svg" xmlns:svg="http://www.w3.org/2000/svg" xmlns:xlink="http://www.w3.org/1999/xlink" id="svg2" width="228" height="32" version="1.1"><metadata id="metadata8"/><defs id="defs6"><linearGradient id="linearGradient3779"><stop id="stop3781" offset="0" stop-color="#000" stop-opacity="1"/><stop id="stop3783" offset="1" stop-color="#000" stop-opacity="0"/></linearGradient><linearGradient id="linearGradient3784"><stop id="stop3786" offset="0" stop-color="#000" stop-opacity=".218"/><stop id="stop3788" offset="1" stop-color="#2b2b2b" stop-opacity="0"/></linearGradient><linearGradient id="linearGradient3790-0" x1="1320" x2="1320" y1="301" y2="310" gradientTransform="matrix(0.26298958,0,0,1,-201.93125,737.39859)" gradientUnits="userSpaceOnUse" xlink:href="#linearGradient3784-5"/><linearGradient id="linearGradient3784-5"><stop id="stop3786-7" offset="0" stop-color="#000" stop-opacity=".218"/><stop id="stop3788-2" offset="1" stop-color="#2b2b2b" stop-opacity="0"/></linearGradient><linearGradient id="linearGradient3785" x1="100" x2="100" y1="0" y2="10" gradientTransform="matrix(1,0,0,0.78749999,-59.1105,1052.1105)" gradientUnits="userSpaceOnUse" xlink:href="#linearGradient3779"/></defs><g id="layer6" display="inline" transform="translate(59.1105,-1052.1105)"><g id="g3916"><path id="rect3883" fill="#000" fill-opacity="1" stroke="#68a024" stroke-dasharray="none" stroke-miterlimit="4" stroke-opacity="1" stroke-width="0" d="M 0 0 L 0 8 L 0 12 L 0 27 C 0 31.432 3.568 35 8 35 L 220 35 C 224.432 35 228 31.432 228 27 L 228 12 L 228 8 L 228 0 L 220 0 L 8 0 L 0 0 z" opacity=".03" transform="translate(-59.1105,1052.1105)"/><path id="rect3878" fill="#000" fill-opacity="1" stroke="#68a024" stroke-dasharray="none" stroke-miterlimit="4" stroke-opacity="1" stroke-width="0" d="m -58.1105,1052.1105 0,7 0,2 0,18 c 0,3.878 3.122,7 7,7 l 212,0 c 3.878,0 7,-3.122 7,-7 l 0,-18 0,-2 0,-7 -7,0 -212,0 -7,0 z" opacity=".03"/><path id="rect3870" fill="#000" fill-opacity="1" stroke="#68a024" stroke-dasharray="none" stroke-miterlimit="4" stroke-opacity="1" stroke-width="0" d="m -57.1105,1052.1105 0,6 0,2 0,19 c 0,3.324 2.676,6 6,6 l 212,0 c 3.324,0 6,-2.676 6,-6 l 0,-19 0,-2 0,-6 -6,0 -212,0 -6,0 z" opacity=".04"/><path id="rect3089" fill="#000" fill-opacity="1" stroke="#68a024" stroke-dasharray="none" stroke-miterlimit="4" stroke-opacity="1" stroke-width="0" d="m -56.1105,1052.1105 0,5 0,2 0,20 c 0,2.77 2.23,5 5,5 l 212,0 c 2.77,0 5,-2.23 5,-5 l 0,-20 0,-2 0,-5 -5,0 -212,0 -5,0 z" opacity=".05"/><g id="g3047" transform="translate(-0.00380673,-0.00168262)"><rect id="rect4011" width="220" height="31" x="-55.107" y="1052.112" fill="#1a1e23" fill-opacity="1" stroke="#68a024" stroke-dasharray="none" stroke-miterlimit="4" stroke-opacity="1" stroke-width="0" ry="4"/><rect id="rect3948" width="218" height="30" x="-54.107" y="1052.112" fill="#293138" fill-opacity="1" stroke="#68a024" stroke-dasharray="none" stroke-miterlimit="4" stroke-opacity="1" stroke-width="0" ry="3"/><rect id="rect3966" width="218" height="7" x="-54.107" y="1052.112" fill="#293138" fill-opacity="1" stroke="#68a024" stroke-dasharray="none" stroke-miterlimit="4" stroke-opacity="1" stroke-width="0"/><rect id="rect4015" width="1" height="4" x="163.893" y="1052.112" fill="#1a1e23" fill-opacity="1" stroke="#68a024" stroke-dasharray="none" stroke-miterlimit="4" stroke-opacity="1" stroke-width="0" ry="0"/><rect id="rect4017" width="1" height="4" x="-55.107" y="1052.112" fill="#1a1e23" fill-opacity="1" stroke="#68a024" stroke-dasharray="none" stroke-miterlimit="4" stroke-opacity="1" stroke-width="0"/></g><path id="rect4021-0" fill="#1a1e23" fill-opacity="1" stroke="#68a024" stroke-dasharray="none" stroke-miterlimit="4" stroke-opacity="1" stroke-width="0" d="m -55.1105,1052.1105 0,4 c 0,-2.2091 -1.79086,-4 -4,-4 l 4,0 z" display="inline"/><path id="rect3982-5" fill="#293138" fill-opacity="1" stroke="#68a024" stroke-dasharray="none" stroke-miterlimit="4" stroke-opacity="1" stroke-width="0" d="m -54.1105,1052.1105 0,3 c 0,-1.662 -1.338,-3 -3,-3 l 3,0 z" display="inline"/><path id="rect4021-0-8" fill="#1a1e23" fill-opacity="1" stroke="#68a024" stroke-dasharray="none" stroke-miterlimit="4" stroke-opacity="1" stroke-width="0" d="m 164.8895,1052.1105 0,4 c 0,-2.2091 1.79086,-4 4,-4 l -4,0 z" display="inline"/><path id="rect3982-5-6" fill="#293138" fill-opacity="1" stroke="#68a024" stroke-dasharray="none" stroke-miterlimit="4" stroke-opacity="1" stroke-width="0" d="m 163.8895,1052.1105 0,3 c 0,-1.662 1.338,-3 3,-3 l -3,0 z" display="inline"/></g><rect id="rect3777" width="220" height="7.875" x="-55.111" y="1052.111" fill="url(#linearGradient3785)" fill-opacity="1" stroke="#68a024" stroke-dasharray="none" stroke-miterlimit="4" stroke-opacity="1" stroke-width="0" opacity=".15"/><rect id="rect3792" width="222" height="1" x="3" y="0" fill="#1a1e23" fill-opacity="1" stroke="#68a024" stroke-dasharray="none" stroke-miterlimit="4" stroke-opacity="1" stroke-width="0" transform="translate(-59.1105,1052.1105)"/></g></svg>