<svg xmlns="http://www.w3.org/2000/svg" xmlns:svg="http://www.w3.org/2000/svg" xmlns:xlink="http://www.w3.org/1999/xlink" id="svg2" width="66" height="12" version="1.1"><defs id="defs4"><linearGradient id="linearGradient3775"><stop id="stop3777" offset="0" stop-color="#7bb337" stop-opacity="1"/><stop id="stop3779" offset="1" stop-color="#6ca428" stop-opacity="1"/></linearGradient><linearGradient id="linearGradient3761"><stop id="stop3763" offset="0" stop-color="#6b7e58" stop-opacity="1"/><stop id="stop3765" offset="1" stop-color="#3b4531" stop-opacity="1"/></linearGradient><linearGradient id="linearGradient3767-4" x1="27" x2="27" y1="3" y2="7" gradientTransform="matrix(0.96930804,0,0,1.5357143,1.9642857,-2.5892)" gradientUnits="userSpaceOnUse" xlink:href="#linearGradient3761-0"/><linearGradient id="linearGradient3761-0"><stop id="stop3763-5" offset="0" stop-color="#4a5a6a" stop-opacity="1"/><stop id="stop3765-6" offset="1" stop-color="#343f4a" stop-opacity="1"/></linearGradient><linearGradient id="linearGradient3781" x1="30" x2="30" y1="5" y2="8" gradientUnits="userSpaceOnUse" xlink:href="#linearGradient3775"/></defs><metadata id="metadata7"/><g id="layer1" transform="translate(0,-1040.3622)"><rect id="rect3760" width="58" height="4" x="4" y="4" fill="#9bc864" fill-opacity="1" ry="2" transform="translate(0,1040.3622)"/><rect id="rect3773" width="58" height="4" x="4" y="5" fill="url(#linearGradient3781)" fill-opacity="1" ry="2" transform="translate(0,1040.3622)"/><path id="rect3858" fill="#507b1b" fill-opacity="1" d="m 6,1043.3622 c -1.662,0 -3,1.338 -3,3 0,1.662 1.338,3 3,3 l 54,0 c 1.662,0 3,-1.338 3,-3 0,-1.662 -1.338,-3 -3,-3 l -54,0 z m 0,1 54,0 c 1.108,0 2,0.892 2,2 0,1.108 -0.892,2 -2,2 l -54,0 c -1.108,0 -2,-0.892 -2,-2 0,-1.108 0.892,-2 2,-2 z"/></g></svg>