<svg xmlns="http://www.w3.org/2000/svg" xmlns:svg="http://www.w3.org/2000/svg" id="svg2" width="32" height="32" version="1.1"><metadata id="metadata7"/><g id="layer1" transform="translate(0,-1020.3622)"><path id="rect2987" fill="#fff" fill-opacity=".314" d="M 4 0 C 1.784 0 4.9515947e-17 1.784 0 4 L 0 28 C 0 30.216 1.784 32 4 32 L 28 32 C 30.216 32 32 30.216 32 28 L 32 4 C 32 1.784 30.216 4.9515947e-17 28 0 L 4 0 z M 4 1 L 28 1 C 29.662 1 31 2.338 31 4 L 31 28 C 31 29.662 29.662 31 28 31 L 4 31 C 2.338 31 1 29.662 1 28 L 1 4 C 1 2.338 2.338 1 4 1 z" transform="translate(0,1020.3622)"/><rect id="rect3761" width="30" height="30" x="1" y="1" fill="#ccc" fill-opacity=".898" ry="3" transform="translate(0,1020.3622)"/></g></svg>