<svg xmlns="http://www.w3.org/2000/svg" xmlns:svg="http://www.w3.org/2000/svg" xmlns:xlink="http://www.w3.org/1999/xlink" id="svg3783" width="44" height="36" version="1.1"><defs id="defs3785"><linearGradient id="linearGradient4226"><stop id="stop4228" offset="0" stop-color="#2E3628" stop-opacity="1"/><stop id="stop4230" offset="1" stop-color="#384230" stop-opacity="1"/></linearGradient><linearGradient id="linearGradient4127"><stop id="stop4129" offset="0" stop-color="#000" stop-opacity=".322"/><stop id="stop4132" offset="1" stop-color="#000" stop-opacity="0"/></linearGradient><linearGradient id="linearGradient3787"><stop id="stop3789" offset="0" stop-color="#202B1C" stop-opacity="1"/><stop id="stop4045" offset=".5" stop-color="#283020" stop-opacity="1"/><stop id="stop3791" offset="1" stop-color="#2B3624" stop-opacity="1"/></linearGradient><linearGradient id="linearGradient3835"><stop id="stop3837" offset="0" stop-color="#fff" stop-opacity="1"/><stop id="stop3839" offset="1" stop-color="#fff" stop-opacity="0"/></linearGradient><linearGradient id="linearGradient4313"><stop id="stop4315" offset="0" stop-color="#fff" stop-opacity=".196"/><stop id="stop4317" offset="1" stop-color="#fff" stop-opacity=".059"/></linearGradient><linearGradient id="linearGradient4319" x1="26" x2="26" y1="2" y2="20" gradientUnits="userSpaceOnUse" xlink:href="#linearGradient4313"/><linearGradient id="linearGradient4325" x1="26" x2="26" y1="2" y2="20" gradientUnits="userSpaceOnUse" xlink:href="#linearGradient4313"/><linearGradient id="linearGradient4329" x1="26" x2="26" y1="2" y2="20" gradientUnits="userSpaceOnUse" xlink:href="#linearGradient4313"/><linearGradient id="linearGradient4331" x1="26" x2="26" y1="2" y2="20" gradientUnits="userSpaceOnUse" xlink:href="#linearGradient4313"/><linearGradient id="linearGradient4350" x1="26" x2="26" y1="2" y2="20" gradientTransform="translate(0,1020.3622)" gradientUnits="userSpaceOnUse" xlink:href="#linearGradient4313"/><linearGradient id="linearGradient4357" x1="26" x2="26" y1="2" y2="20" gradientUnits="userSpaceOnUse" xlink:href="#linearGradient4313"/><linearGradient id="linearGradient4359" x1="26" x2="26" y1="2" y2="20" gradientUnits="userSpaceOnUse" xlink:href="#linearGradient4313"/><linearGradient id="linearGradient4416" x1="26" x2="26" y1="2" y2="20" gradientTransform="translate(0,1030.3622)" gradientUnits="userSpaceOnUse" xlink:href="#linearGradient4313"/><linearGradient id="linearGradient4419" x1="26" x2="26" y1="2" y2="20" gradientTransform="translate(0,1030.3622)" gradientUnits="userSpaceOnUse" xlink:href="#linearGradient4313"/><linearGradient id="linearGradient4433" x1="26" x2="26" y1="2" y2="20" gradientTransform="translate(0,1030.3622)" gradientUnits="userSpaceOnUse" xlink:href="#linearGradient4313"/><linearGradient id="linearGradient4437" x1="26" x2="26" y1="2" y2="20" gradientTransform="translate(0,1030.3622)" gradientUnits="userSpaceOnUse" xlink:href="#linearGradient4313"/><linearGradient id="linearGradient4439" x1="26" x2="26" y1="2" y2="20" gradientUnits="userSpaceOnUse" xlink:href="#linearGradient4313"/><clipPath id="clipPath3783" clipPathUnits="userSpaceOnUse"><path id="path3785" fill="#F0F" fill-opacity="1" fill-rule="nonzero" stroke="none" stroke-width="1" d="m 0,1040.3622 0,22 48,0 0,-22 -48,0 z m 4.5,2 39,0 c 1.385,0 2.5,1.115 2.5,2.5 l 0,13 c 0,1.385 -1.115,2.5 -2.5,2.5 l -39,0 c -1.385,0 -2.5,-1.115 -2.5,-2.5 l 0,-13 c 0,-1.385 1.115,-2.5 2.5,-2.5 z" color="#000" display="inline" enable-background="accumulate" opacity=".4" overflow="visible" visibility="visible" style="marker:none"/></clipPath><linearGradient id="linearGradient3797" x1="26" x2="26" y1="2" y2="20" gradientTransform="translate(0,1030.3622)" gradientUnits="userSpaceOnUse" xlink:href="#linearGradient4313"/><linearGradient id="linearGradient3812" x1="26" x2="26" y1="2" y2="30" gradientUnits="userSpaceOnUse" xlink:href="#linearGradient4313"/><linearGradient id="linearGradient3841" x1="0" x2="0" y1="20" y2="40" gradientUnits="userSpaceOnUse" spreadMethod="reflect" xlink:href="#linearGradient3835"/><clipPath id="clipPath3838" clipPathUnits="userSpaceOnUse"><path id="path3840" fill="#f0f" fill-opacity="1" fill-rule="nonzero" stroke="none" stroke-width="2" d="m 36,1068.3622 -6,0 0,5.5 c 0,2.493 -2.007,4.5 -4.5,4.5 l -15,0 c -2.493,0 -4.5,-2.007 -4.5,-4.5 l 0,-5.5 -6,0 0,16 36,0 0,-16 z" color="#000" display="inline" enable-background="accumulate" opacity=".1" overflow="visible" visibility="visible" style="marker:none"/></clipPath><linearGradient id="linearGradient3787-1"><stop id="stop3789-5" offset="0" stop-color="#222B1C" stop-opacity="1"/><stop id="stop3791-5" offset="1" stop-color="#2C3624" stop-opacity="1"/></linearGradient><linearGradient id="linearGradient3898"><stop id="stop3900" offset="0" stop-color="#202B1C" stop-opacity="1"/><stop id="stop3902" offset="1" stop-color="#2B3624" stop-opacity="1"/></linearGradient><filter id="filter3994" width="1" height="1" x="0" y="0" color-interpolation-filters="sRGB"><feGaussianBlur id="feGaussianBlur3996" result="result3" stdDeviation="5"/><feComposite id="feComposite3998" in="result3" in2="result3" k1=".5" k3=".5" operator="arithmetic" result="result1"/><feBlend id="feBlend4000" in="SourceGraphic" in2="result1" mode="screen" result="result5"/><feBlend id="feBlend4002" in="result5" in2="result5" mode="darken" result="result6"/><feComposite id="feComposite4004" in2="SourceGraphic" operator="in"/></filter><linearGradient id="linearGradient3787-7"><stop id="stop3789-7" offset="0" stop-color="#212B1C" stop-opacity="1"/><stop id="stop4045-1" offset=".5" stop-color="#263020" stop-opacity="1"/><stop id="stop3791-2" offset="1" stop-color="#2A3624" stop-opacity="1"/></linearGradient><linearGradient id="linearGradient4129"><stop id="stop4131" offset="0" stop-color="#212B1C" stop-opacity="1"/><stop id="stop4133" offset=".5" stop-color="#253020" stop-opacity="1"/><stop id="stop4135" offset="1" stop-color="#2C3624" stop-opacity="1"/></linearGradient><linearGradient id="linearGradient4315-2" x1="1076.362" x2="1048.362" y1="-6" y2="-6" gradientUnits="userSpaceOnUse" xlink:href="#linearGradient4309-6"/><linearGradient id="linearGradient4309-6"><stop id="stop4311-0" offset="0" stop-color="#fff" stop-opacity="1"/><stop id="stop4313-0" offset="1" stop-color="#fff" stop-opacity="0"/></linearGradient><linearGradient id="linearGradient4332-9" x1="1076.362" x2="1048.362" y1="-6" y2="-6" gradientTransform="translate(1.7392813e-5,-23)" gradientUnits="userSpaceOnUse" xlink:href="#linearGradient4309-6-3"/><linearGradient id="linearGradient4309-6-3"><stop id="stop4311-0-9" offset="0" stop-color="#fff" stop-opacity="1"/><stop id="stop4313-0-5" offset="1" stop-color="#fff" stop-opacity="0"/></linearGradient><linearGradient id="linearGradient4232" x1="19" x2="19" y1="1048.362" y2="1086.362" gradientUnits="userSpaceOnUse" xlink:href="#linearGradient4226"/></defs><metadata id="metadata3788"/><g id="layer1" transform="translate(0,-1016.3622)"><g id="g3027" transform="matrix(0,-1,1,0,-1048.3622,1052.3622)"><path id="rect4195" fill="#000" fill-opacity="1" d="M 0 2 L 0 34 L 26.75 34 L 34 34 L 35 34 L 35 33.9375 C 38.953435 33.445413 42 30.090954 42 26 L 42 10 C 42 5.9090462 38.953435 2.5545866 35 2.0625 L 35 2 L 34 2 L 26.75 2 L 0 2 z" opacity=".09" transform="matrix(0,1,-1,0,36,1048.3622)"/><path id="rect4192" fill="#000" fill-opacity="1" d="m 33,1048.3622 -30,0 0,31.9375 0,1.0625 0,1 c 0,3.878 3.1219995,7 6.9999998,7 l 16.0000002,0 c 3.878,0 7,-3.122 7,-7 l 0,-1 0,-1.0625 0,-31.9375 z" opacity=".09"/><path id="rect4155" fill="#000" fill-opacity="1" d="m 32.001111,1048.3622 -27.9999999,0 0,33.5 c 0,0.075 -0.0025,0.1445 0,0.2188 0.117084,3.4966 2.973851,6.2812 6.4999999,6.2812 l 15,0 c 3.526149,0 6.382917,-2.7846 6.5,-6.2812 l 0,-0.2188 0,-33.5 z" opacity=".09"/><path id="rect3028" fill="url(#linearGradient4232)" fill-opacity="1" fill-rule="nonzero" stroke="none" stroke-width="2" d="m 30,1048.3622 -24.0000002,0 0,28 0,5.5 c 0,2.493 2.007,4.5 4.5000002,4.5 l 15,0 c 2.493,0 4.5,-2.007 4.5,-4.5 l 0,-5.5 0,-28 z" color="#000" display="inline" enable-background="accumulate" overflow="visible" visibility="visible" style="marker:none"/><g id="g4220" transform="translate(20.75,-65.5)"><path d="m 10.21875,1141.8622 -0.96875,0 0,5.5 c 0,2.493 -2.007,4.5 -4.5,4.5 l -15,0 c -2.493,0 -4.5,-2.007 -4.5,-4.5 l 0,-5.5 -0.96875,0 0,5.5 c 0,3.0182 2.450523,5.4688 5.46875,5.4688 l 15,0 c 3.018227,0 5.46875,-2.4506 5.46875,-5.4688 l 0,-5.5 z" style="marker:none" id="path3016" fill="#090D07" fill-opacity="1" fill-rule="nonzero" stroke="none" stroke-width="2" color="#000" display="inline" enable-background="accumulate" overflow="visible" visibility="visible"/><rect id="rect3841" width="28" height="1" x="1113.862" y="-10.25" fill="#070b0d" fill-opacity="1" stroke="#000" stroke-dasharray="none" stroke-linejoin="miter" stroke-miterlimit="4" stroke-opacity="1" stroke-width="0" transform="matrix(0,1,-1,0,0,0)"/><rect id="rect3841-4" width="28" height="1" x="1113.862" y="14.75" fill="#070b0d" fill-opacity="1" stroke="#000" stroke-dasharray="none" stroke-linejoin="miter" stroke-miterlimit="4" stroke-opacity="1" stroke-width="0" transform="matrix(0,1,-1,0,0,0)"/></g><rect id="rect3826" width="1" height="24" x="1051.362" y="-30" fill="#000" fill-opacity=".771" transform="matrix(0,1,-1,0,0,0)"/><rect id="rect3828" width="3.313" height="24" x="1048.362" y="-30" fill="#000e14" fill-opacity=".403" transform="matrix(0,1,-1,0,0,0)"/></g></g></svg>