<svg xmlns="http://www.w3.org/2000/svg" xmlns:svg="http://www.w3.org/2000/svg" xmlns:xlink="http://www.w3.org/1999/xlink" id="svg3783" width="44" height="36" version="1.1"><defs id="defs3785"><linearGradient id="linearGradient3787"><stop id="stop3789" offset="0" stop-color="#1c232b" stop-opacity="1"/><stop id="stop4045" offset=".5" stop-color="#202830" stop-opacity="1"/><stop id="stop3791" offset="1" stop-color="#242d36" stop-opacity="1"/></linearGradient><linearGradient id="linearGradient3835"><stop id="stop3837" offset="0" stop-color="#fff" stop-opacity="1"/><stop id="stop3839" offset="1" stop-color="#fff" stop-opacity="0"/></linearGradient><linearGradient id="linearGradient4313"><stop id="stop4315" offset="0" stop-color="#fff" stop-opacity=".196"/><stop id="stop4317" offset="1" stop-color="#fff" stop-opacity=".059"/></linearGradient><linearGradient id="linearGradient4319" x1="26" x2="26" y1="2" y2="20" gradientUnits="userSpaceOnUse" xlink:href="#linearGradient4313"/><linearGradient id="linearGradient4325" x1="26" x2="26" y1="2" y2="20" gradientUnits="userSpaceOnUse" xlink:href="#linearGradient4313"/><linearGradient id="linearGradient4329" x1="26" x2="26" y1="2" y2="20" gradientUnits="userSpaceOnUse" xlink:href="#linearGradient4313"/><linearGradient id="linearGradient4331" x1="26" x2="26" y1="2" y2="20" gradientUnits="userSpaceOnUse" xlink:href="#linearGradient4313"/><linearGradient id="linearGradient4350" x1="26" x2="26" y1="2" y2="20" gradientTransform="translate(0,1020.3622)" gradientUnits="userSpaceOnUse" xlink:href="#linearGradient4313"/><linearGradient id="linearGradient4357" x1="26" x2="26" y1="2" y2="20" gradientUnits="userSpaceOnUse" xlink:href="#linearGradient4313"/><linearGradient id="linearGradient4359" x1="26" x2="26" y1="2" y2="20" gradientUnits="userSpaceOnUse" xlink:href="#linearGradient4313"/><linearGradient id="linearGradient4416" x1="26" x2="26" y1="2" y2="20" gradientTransform="translate(0,1030.3622)" gradientUnits="userSpaceOnUse" xlink:href="#linearGradient4313"/><linearGradient id="linearGradient4419" x1="26" x2="26" y1="2" y2="20" gradientTransform="translate(0,1030.3622)" gradientUnits="userSpaceOnUse" xlink:href="#linearGradient4313"/><linearGradient id="linearGradient4433" x1="26" x2="26" y1="2" y2="20" gradientTransform="translate(0,1030.3622)" gradientUnits="userSpaceOnUse" xlink:href="#linearGradient4313"/><linearGradient id="linearGradient4437" x1="26" x2="26" y1="2" y2="20" gradientTransform="translate(0,1030.3622)" gradientUnits="userSpaceOnUse" xlink:href="#linearGradient4313"/><linearGradient id="linearGradient4439" x1="26" x2="26" y1="2" y2="20" gradientUnits="userSpaceOnUse" xlink:href="#linearGradient4313"/><clipPath id="clipPath3783" clipPathUnits="userSpaceOnUse"><path id="path3785" fill="#f0f" fill-opacity="1" fill-rule="nonzero" stroke="none" stroke-width="1" d="m 0,1040.3622 0,22 48,0 0,-22 -48,0 z m 4.5,2 39,0 c 1.385,0 2.5,1.115 2.5,2.5 l 0,13 c 0,1.385 -1.115,2.5 -2.5,2.5 l -39,0 c -1.385,0 -2.5,-1.115 -2.5,-2.5 l 0,-13 c 0,-1.385 1.115,-2.5 2.5,-2.5 z" color="#000" display="inline" enable-background="accumulate" opacity=".4" overflow="visible" visibility="visible" style="marker:none"/></clipPath><linearGradient id="linearGradient3797" x1="26" x2="26" y1="2" y2="20" gradientTransform="translate(0,1030.3622)" gradientUnits="userSpaceOnUse" xlink:href="#linearGradient4313"/><linearGradient id="linearGradient3812" x1="26" x2="26" y1="2" y2="30" gradientUnits="userSpaceOnUse" xlink:href="#linearGradient4313"/><linearGradient id="linearGradient3841" x1="0" x2="0" y1="20" y2="40" gradientUnits="userSpaceOnUse" spreadMethod="reflect" xlink:href="#linearGradient3835"/><clipPath id="clipPath3838" clipPathUnits="userSpaceOnUse"><path id="path3840" fill="#f0f" fill-opacity="1" fill-rule="nonzero" stroke="none" stroke-width="2" d="m 36,1068.3622 -6,0 0,5.5 c 0,2.493 -2.007,4.5 -4.5,4.5 l -15,0 c -2.493,0 -4.5,-2.007 -4.5,-4.5 l 0,-5.5 -6,0 0,16 36,0 0,-16 z" color="#000" display="inline" enable-background="accumulate" opacity=".1" overflow="visible" visibility="visible" style="marker:none"/></clipPath><linearGradient id="linearGradient3787-1"><stop id="stop3789-5" offset="0" stop-color="#1c232b" stop-opacity="1"/><stop id="stop3791-5" offset="1" stop-color="#242d36" stop-opacity="1"/></linearGradient><linearGradient id="linearGradient3898"><stop id="stop3900" offset="0" stop-color="#1c232b" stop-opacity="1"/><stop id="stop3902" offset="1" stop-color="#242d36" stop-opacity="1"/></linearGradient><filter id="filter3994" width="1" height="1" x="0" y="0" color-interpolation-filters="sRGB"><feGaussianBlur id="feGaussianBlur3996" result="result3" stdDeviation="5"/><feComposite id="feComposite3998" in="result3" in2="result3" k1=".5" k3=".5" operator="arithmetic" result="result1"/><feBlend id="feBlend4000" in="SourceGraphic" in2="result1" mode="screen" result="result5"/><feBlend id="feBlend4002" in="result5" in2="result5" mode="darken" result="result6"/><feComposite id="feComposite4004" in2="SourceGraphic" operator="in"/></filter><linearGradient id="linearGradient3787-7"><stop id="stop3789-7" offset="0" stop-color="#1c232b" stop-opacity="1"/><stop id="stop4045-1" offset=".5" stop-color="#202830" stop-opacity="1"/><stop id="stop3791-2" offset="1" stop-color="#242d36" stop-opacity="1"/></linearGradient><linearGradient id="linearGradient4129"><stop id="stop4131" offset="0" stop-color="#1c232b" stop-opacity="1"/><stop id="stop4133" offset=".5" stop-color="#202830" stop-opacity="1"/><stop id="stop4135" offset="1" stop-color="#242d36" stop-opacity="1"/></linearGradient><linearGradient id="linearGradient4315-2" x1="1076.362" x2="1048.362" y1="-6" y2="-6" gradientUnits="userSpaceOnUse" xlink:href="#linearGradient4309-6"/><linearGradient id="linearGradient4309-6"><stop id="stop4311-0" offset="0" stop-color="#fff" stop-opacity="1"/><stop id="stop4313-0" offset="1" stop-color="#fff" stop-opacity="0"/></linearGradient></defs><metadata id="metadata3788"/><g id="layer1" transform="translate(0,-1016.3622)"><g id="g3027" transform="matrix(0,-1,1,0,-1048.3622,1052.3622)"><g id="g3940" opacity=".25"><rect id="rect3098-0-8-1-0" width="42" height="34" x="1049.362" y="-35" fill="#000" fill-opacity=".157" stroke="#000" stroke-dasharray="none" stroke-linejoin="miter" stroke-miterlimit="4" stroke-opacity="1" stroke-width="0" opacity=".492" ry="5.231" transform="matrix(0,1,-1,0,0,0)"/><rect id="rect3098-0-8-1" width="40" height="32" x="1050.362" y="-34" fill="#000" fill-opacity=".157" stroke="#000" stroke-dasharray="none" stroke-linejoin="miter" stroke-miterlimit="4" stroke-opacity="1" stroke-width="0" opacity=".712" ry="4.923" transform="matrix(0,1,-1,0,0,0)"/><rect id="rect3098-0-8" width="38" height="30" x="1051.362" y="-33" fill="#000" fill-opacity=".157" stroke="#000" stroke-dasharray="none" stroke-linejoin="miter" stroke-miterlimit="4" stroke-opacity="1" stroke-width="0" ry="4.615" transform="matrix(0,1,-1,0,0,0)"/><rect id="rect3098-0" width="36" height="28" x="1052.362" y="-32" fill="#000" fill-opacity=".176" stroke="#000" stroke-dasharray="none" stroke-linejoin="miter" stroke-miterlimit="4" stroke-opacity="1" stroke-width="0" ry="4.308" transform="matrix(0,1,-1,0,0,0)"/></g><rect id="rect3813" width="34" height="26" x="5" y="5" fill="#000" fill-opacity=".157" ry="4" transform="matrix(0,1,-1,0,36,1048.3622)"/><rect id="rect3815" width="32" height="24" x="6" y="6" fill="#fff" fill-opacity="1" ry="3" transform="matrix(0,1,-1,0,36,1048.3622)"/></g></g></svg>