<svg xmlns="http://www.w3.org/2000/svg" xmlns:svg="http://www.w3.org/2000/svg" xmlns:xlink="http://www.w3.org/1999/xlink" id="svg12430" width="16" height="16" version="1.1"><metadata id="metadata12435"/><g id="layer1" transform="translate(0,-1036.3622)"><g id="g14642-3-0" display="inline" transform="translate(-141.99984,638.37113)"><path id="path13004" fill="#000" fill-opacity="1" stroke="none" stroke-width="2" d="M 145.1875,400 C 144.5248,400 144,400.54899 144,401.21875 l 0,9.5625 c 0,0.66976 0.5248,1.21875 1.1875,1.21875 l 9.625,0 c 0.6627,0 1.1875,-0.54899 1.1875,-1.21875 l 0,-9.5625 C 156,400.54899 155.4752,400 154.8125,400 L 145.1875,400 z m 3.8125,3 2,0 0,2 2,0 0,2 -2,0 0,2 -2,0 0,-2 -2,0 0,-2 2,0 L 149,403 Z" color="#bebebe" display="inline" opacity=".8" overflow="visible" transform="translate(0,1)" visibility="visible" xlink:href="#rect11749-5-0-1-8" style="marker:none"/><use id="use11960" width="16" height="16" x="0" y="0" transform="translate(1,-1)" xlink:href="#path13004"/><use id="use11962" width="16" height="16" x="0" y="0" transform="translate(-2,0)" xlink:href="#use11960"/><path id="rect3757" fill="#000" fill-opacity="1" fill-rule="evenodd" stroke="#000" stroke-linecap="butt" stroke-linejoin="miter" stroke-miterlimit="4" stroke-opacity="1" stroke-width="0" d="M 7 5 L 7 7 L 5 7 L 5 9 L 7 9 L 7 11 L 9 11 L 9 9 L 11 9 L 11 7 L 9 7 L 9 5 L 7 5 z" transform="translate(141.99984,397.99107)"/><path id="rect11749-5-0-1-8" fill="#fff" fill-opacity="1" stroke="none" stroke-width="2" d="M 145.1875,400 C 144.5248,400 144,400.54899 144,401.21875 l 0,9.5625 c 0,0.66976 0.5248,1.21875 1.1875,1.21875 l 9.625,0 c 0.6627,0 1.1875,-0.54899 1.1875,-1.21875 l 0,-9.5625 C 156,400.54899 155.4752,400 154.8125,400 L 145.1875,400 z m 3.8125,3 2,0 0,2 2,0 0,2 -2,0 0,2 -2,0 0,-2 -2,0 0,-2 2,0 L 149,403 Z" color="#bebebe" display="inline" overflow="visible" visibility="visible" style="marker:none"/><rect id="rect3620-5-4" width="15.982" height="16" x="142" y="398" fill="none" stroke="none" rx="0" ry="0"/></g></g></svg>