<svg xmlns="http://www.w3.org/2000/svg" xmlns:svg="http://www.w3.org/2000/svg" id="svg3012" width="65" height="22" version="1.1"><metadata id="metadata3017"/><g id="layer1" transform="translate(-343,-521.36218)"><g id="g17454" display="inline" transform="translate(-453,448.36218)"><rect id="rect17456" width="63" height="19" x="-859.5" y="74.5" fill="none" stroke="#2e3436" stroke-dasharray="none" stroke-dashoffset="0" stroke-linecap="round" stroke-linejoin="miter" stroke-miterlimit="4" stroke-opacity="1" stroke-width="1" color="#000" display="inline" enable-background="accumulate" overflow="visible" rx="4" ry="4" transform="scale(-1,1)" visibility="visible" style="marker:none"/><rect id="rect17458" width="31" height="20" x="-828" y="74" fill="#000" fill-opacity="1" stroke="#5f5f5f" stroke-dasharray="none" stroke-dashoffset="0" stroke-linecap="round" stroke-linejoin="miter" stroke-miterlimit="4" stroke-opacity="1" stroke-width="2" display="inline" rx="4" ry="4" transform="scale(-1,1)"/><g id="g17460" display="inline" transform="matrix(-1,0,0,1,1619.1239,-33.986291)"><path id="path17462" fill="none" stroke="#5f5f5f" stroke-linecap="round" stroke-linejoin="miter" stroke-opacity="1" stroke-width="1" d="m 803.6322,115.48629 0,4.29495"/><path id="path17464" fill="none" stroke="#5f5f5f" stroke-linecap="round" stroke-linejoin="miter" stroke-opacity="1" stroke-width="1" d="m 806.62805,115.48629 0,4.29495" display="inline"/><path id="path17466" fill="none" stroke="#5f5f5f" stroke-linecap="round" stroke-linejoin="miter" stroke-opacity="1" stroke-width="1" d="m 809.6239,115.48629 0,4.29495" display="inline"/></g><g id="text17468" fill="#fff" fill-opacity="1" fill-rule="nonzero" stroke="none" stroke-width="1" color="#000" direction="ltr" display="inline" font-family="Cantarell" font-size="8.959" font-stretch="normal" font-style="normal" font-variant="normal" font-weight="bold" letter-spacing="normal" text-anchor="start" text-decoration="none" transform="translate(0.34375,0)" visibility="visible" word-spacing="normal" writing-mode="lr-tb" style="text-indent:0;text-align:start;line-height:125%;text-transform:none;block-progression:tb;marker:none;-inkscape-font-specification:Cantarell Bold"><path id="path18599" fill="#fff" fill-opacity="1" d="m 837.28518,80.750726 c 0.63282,6e-6 1.19566,0.123947 1.68852,0.371824 0.49284,0.247888 0.8807,0.609505 1.16359,1.084851 0.28287,0.472439 0.42431,1.022155 0.42431,1.649149 0,0.635748 -0.13853,1.200045 -0.41556,1.692892 -0.27706,0.489934 -0.66638,0.870507 -1.16797,1.141719 -0.5016,0.271213 -1.07756,0.406819 -1.72789,0.406819 -0.42869,0 -0.83551,-0.06562 -1.22045,-0.196848 -0.38495,-0.134148 -0.73053,-0.32808 -1.03674,-0.581795 -0.30329,-0.256631 -0.54534,-0.589085 -0.72615,-0.997363 -0.17789,-0.408276 -0.26684,-0.869045 -0.26683,-1.382311 -10e-6,-0.638658 0.13997,-1.200039 0.41994,-1.684144 0.27996,-0.487011 0.66782,-0.858835 1.16359,-1.115472 0.49576,-0.259541 1.06297,-0.389315 1.70164,-0.389321 m 0.57305,1.089225 c -0.20123,-0.05249 -0.40683,-0.07873 -0.61679,-0.07874 -0.20998,5e-6 -0.41412,0.02625 -0.61242,0.07874 -0.19831,0.04958 -0.38933,0.129779 -0.57305,0.240592 -0.18081,0.107907 -0.33974,0.242055 -0.47681,0.402445 -0.13706,0.160399 -0.24642,0.358705 -0.32808,0.594918 -0.0816,0.233306 -0.12248,0.491395 -0.12248,0.774269 0,0.67366 0.20851,1.214627 0.62554,1.622903 0.41702,0.408278 0.93758,0.612416 1.56166,0.612416 0.25954,0 0.51034,-0.04229 0.7524,-0.126858 0.24496,-0.08457 0.47097,-0.20997 0.67803,-0.376198 0.20705,-0.166226 0.37328,-0.392236 0.49868,-0.678032 0.12539,-0.285792 0.18809,-0.610956 0.1881,-0.975492 -10e-6,-0.297455 -0.0437,-0.568668 -0.13123,-0.813638 -0.0875,-0.247878 -0.20415,-0.453475 -0.34995,-0.61679 -0.14291,-0.163307 -0.31059,-0.301829 -0.50306,-0.415568 -0.18956,-0.11373 -0.38641,-0.195385 -0.59054,-0.244967" font-family="Cantarell" style="line-height:125%;marker:none;-inkscape-font-specification:Cantarell Bold"/><path id="path18601" fill="#fff" fill-opacity="1" d="m 843.5362,81.831203 0,1.17917 2.94834,0 0,1.014861 -2.94834,0 0,3.00713 -1.10673,0 0,-6.216022 4.31754,0 0,1.014861 -3.21081,0" font-family="Cantarell" style="line-height:125%;marker:none;-inkscape-font-specification:Cantarell Bold"/><path id="path18603" fill="#fff" fill-opacity="1" d="m 849.71285,81.831203 0,1.17917 2.94834,0 0,1.014861 -2.94834,0 0,3.00713 -1.10672,0 0,-6.216022 4.31753,0 0,1.014861 -3.21081,0" font-family="Cantarell" style="line-height:125%;marker:none;-inkscape-font-specification:Cantarell Bold"/></g></g></g></svg>