<svg xmlns="http://www.w3.org/2000/svg" xmlns:svg="http://www.w3.org/2000/svg" id="svg2857" width="65" height="22" version="1.1"><metadata id="metadata2862"/><g id="layer1" transform="translate(-444.64286,-781.36218)"><g id="g16453" display="inline" transform="translate(-351.35714,708.36218)"><rect id="rect16256-9-4" width="63" height="19" x="-859.5" y="74.5" fill="#9AD94A" fill-opacity="1" fill-rule="nonzero" stroke="#67A434" stroke-dasharray="none" stroke-dashoffset="0" stroke-linecap="round" stroke-linejoin="miter" stroke-miterlimit="4" stroke-opacity="1" stroke-width="1" color="#000" display="inline" enable-background="accumulate" overflow="visible" rx="4" ry="4" transform="scale(-1,1)" visibility="visible" style="marker:none"/><rect id="rect16258-5-4" width="31" height="20" x="-860" y="74" fill="#000" fill-opacity="1" stroke="#5f5f5f" stroke-dasharray="none" stroke-dashoffset="0" stroke-linecap="round" stroke-linejoin="miter" stroke-miterlimit="4" stroke-opacity="1" stroke-width="2" display="inline" rx="4" ry="4" transform="scale(-1,1)"/><g id="g16298-3-6" display="inline" transform="matrix(-1,0,0,1,1651.1322,-33.986291)"><path id="path16265-3-5" fill="none" stroke="#5f5f5f" stroke-linecap="round" stroke-linejoin="miter" stroke-opacity="1" stroke-width="1" d="m 803.6322,115.48629 0,4.29495"/><path id="path16265-0-2-0" fill="none" stroke="#5f5f5f" stroke-linecap="round" stroke-linejoin="miter" stroke-opacity="1" stroke-width="1" d="m 806.62805,115.48629 0,4.29495" display="inline"/><path id="path16265-8-7-1" fill="none" stroke="#5f5f5f" stroke-linecap="round" stroke-linejoin="miter" stroke-opacity="1" stroke-width="1" d="m 809.6239,115.48629 0,4.29495" display="inline"/></g><g id="text42229-3-0" fill="#fff" fill-opacity="1" fill-rule="nonzero" stroke="none" stroke-width="1" color="#000" direction="ltr" display="inline" font-family="Cantarell" font-size="8.959" font-stretch="normal" font-style="normal" font-variant="normal" font-weight="bold" letter-spacing="normal" text-anchor="start" text-decoration="none" visibility="visible" word-spacing="normal" writing-mode="lr-tb" style="text-indent:0;text-align:start;line-height:125%;text-transform:none;block-progression:tb;marker:none;-inkscape-font-specification:Cantarell Bold"><path id="path18606" fill="#fff" fill-opacity="1" d="m 808.01473,80.573953 c 0.63283,6e-6 1.19567,0.123947 1.68852,0.371824 0.49284,0.247888 0.88071,0.609505 1.16359,1.084851 0.28287,0.472439 0.42431,1.022155 0.42432,1.649149 -10e-6,0.635748 -0.13853,1.200045 -0.41557,1.692892 -0.27705,0.489934 -0.66637,0.870506 -1.16796,1.141719 -0.50161,0.271212 -1.07757,0.406819 -1.72789,0.406819 -0.4287,0 -0.83552,-0.06562 -1.22046,-0.196848 -0.38495,-0.134148 -0.73053,-0.32808 -1.03673,-0.581795 -0.3033,-0.256631 -0.54535,-0.589085 -0.72615,-0.997363 -0.1779,-0.408276 -0.26684,-0.869045 -0.26684,-1.382311 0,-0.638658 0.13998,-1.200039 0.41994,-1.684144 0.27996,-0.487011 0.66782,-0.858835 1.16359,-1.115472 0.49576,-0.259541 1.06298,-0.389315 1.70164,-0.389321 m 0.57305,1.089225 c -0.20123,-0.05249 -0.40682,-0.07873 -0.61679,-0.07874 -0.20998,5e-6 -0.41411,0.02625 -0.61242,0.07874 -0.19831,0.04958 -0.38932,0.129779 -0.57304,0.240592 -0.18081,0.107907 -0.33975,0.242055 -0.47681,0.402445 -0.13707,0.160399 -0.24643,0.358705 -0.32808,0.594918 -0.0817,0.233305 -0.12249,0.491395 -0.12249,0.774269 0,0.67366 0.20851,1.214627 0.62554,1.622902 0.41703,0.408279 0.93758,0.612417 1.56166,0.612416 0.25955,10e-7 0.51035,-0.04228 0.7524,-0.126857 0.24496,-0.08457 0.47097,-0.20997 0.67803,-0.376199 0.20705,-0.166225 0.37328,-0.392236 0.49868,-0.678031 0.1254,-0.285792 0.1881,-0.610956 0.1881,-0.975492 0,-0.297455 -0.0437,-0.568668 -0.13123,-0.813638 -0.0875,-0.247878 -0.20414,-0.453475 -0.34995,-0.61679 -0.1429,-0.163307 -0.31059,-0.301829 -0.50306,-0.415568 -0.18956,-0.11373 -0.38641,-0.195385 -0.59054,-0.244967" font-family="Cantarell" style="line-height:125%;marker:none;-inkscape-font-specification:Cantarell Bold"/><path id="path18608" fill="#fff" fill-opacity="1" d="m 813.15903,80.639569 1.21608,0 3.4689,4.776844 0,-4.776844 1.10235,0 0,6.216022 -1.22921,0 -3.45577,-4.785594 0,4.785594 -1.10235,0 0,-6.216022" font-family="Cantarell" style="line-height:125%;marker:none;-inkscape-font-specification:Cantarell Bold"/></g></g></g></svg>