<svg xmlns="http://www.w3.org/2000/svg" xmlns:svg="http://www.w3.org/2000/svg" id="svg2" width="32" height="32" version="1.1"><metadata id="metadata7"/><g id="layer1" transform="translate(0,-1020.3622)"><path id="rect2987" fill="#fff" fill-opacity=".314" d="m 5.6336061,1020.3622 c -3.1210178,0 -5.6336061,1.784 -5.6336061,4 l 0,24 c 0,2.216 2.5125883,4 5.6336061,4 l 33.8016369,0 c 3.121017,0 5.633606,-1.784 5.633606,-4 l 0,-24 c 0,-2.216 -2.512589,-4 -5.633606,-4 l -33.8016369,0 z m 0,1 33.8016369,0 c 2.340763,0 4.225204,1.338 4.225204,3 l 0,24 c 0,1.662 -1.884441,3 -4.225204,3 l -33.8016369,0 c -2.3407634,0 -4.2252046,-1.338 -4.2252046,-3 l 0,-24 c 0,-1.662 1.8844412,-3 4.2252046,-3 z"/><rect id="rect3761" width="42.627" height="30" x="1" y="1021.362" fill="#1E241A" fill-opacity=".898" ry="3"/></g></svg>