<svg xmlns="http://www.w3.org/2000/svg" xmlns:svg="http://www.w3.org/2000/svg" xmlns:xlink="http://www.w3.org/1999/xlink" id="svg2" width="12" height="66" version="1.1"><defs id="defs4"><linearGradient id="linearGradient3761"><stop id="stop3763" offset="0" stop-color="#6b7e58" stop-opacity="1"/><stop id="stop3765" offset="1" stop-color="#3b4531" stop-opacity="1"/></linearGradient><linearGradient id="linearGradient3767-4" x1="27" x2="27" y1="3" y2="7" gradientTransform="matrix(0.96930804,0,0,1.5357143,1.9642857,-2.5892)" gradientUnits="userSpaceOnUse" xlink:href="#linearGradient3761-0"/><linearGradient id="linearGradient3761-0"><stop id="stop3763-5" offset="0" stop-color="#5a6a4a" stop-opacity="1"/><stop id="stop3765-6" offset="1" stop-color="#3f4a34" stop-opacity="1"/></linearGradient></defs><metadata id="metadata7"/><g id="layer1" transform="translate(0,-986.3622)"><path id="rect3858" fill="#507b1b" fill-opacity="1" d="m 3,1046.3622 c 0,1.662 1.338,3 3,3 1.662,0 3,-1.338 3,-3 l 0,-54.00007 c 0,-1.662 -1.338,-3 -3,-3 -1.662,0 -3,1.338 -3,3 l 0,54.00007 z m 1,0 0,-54.00007 c 0,-1.108 0.892,-2 2,-2 1.108,0 2,0.892 2,2 l 0,54.00007 c 0,1.108 -0.892,2 -2,2 -1.108,0 -2,-0.892 -2,-2 z"/></g></svg>