<svg xmlns="http://www.w3.org/2000/svg" xmlns:svg="http://www.w3.org/2000/svg" xmlns:xlink="http://www.w3.org/1999/xlink" id="svg2" width="12" height="32" version="1.1"><defs id="defs4"><linearGradient id="linearGradient3800"><stop id="stop3802" offset="0" stop-color="#919eab" stop-opacity="1"/><stop id="stop3804" offset="1" stop-color="#a7b3be" stop-opacity="1"/></linearGradient><linearGradient id="linearGradient3806" x1="3.688" x2="9.357" y1="1036.407" y2="1036.407" gradientUnits="userSpaceOnUse" xlink:href="#linearGradient3800"/></defs><metadata id="metadata7"/><g id="layer1" transform="translate(0,-1020.3622)"><rect id="rect3798" width="5.67" height="28.714" x="3.688" y="1022.05" fill="url(#linearGradient3806)" fill-opacity="1" ry="2.564"/><path id="rect3755" fill="#57604e" fill-opacity="1" d="M 6.5 1 C 4.561 1 3 2.561 3 4.5 L 3 27.5 C 3 29.439 4.561 31 6.5 31 C 8.439 31 10 29.439 10 27.5 L 10 4.5 C 10 2.561 8.439 1 6.5 1 z M 6.5 2 C 7.885 2 9 3.115 9 4.5 L 9 27.5 C 9 28.885 7.885 30 6.5 30 C 5.115 30 4 28.885 4 27.5 L 4 4.5 C 4 3.115 5.115 2 6.5 2 z" transform="translate(0,1020.3622)"/></g></svg>