<svg xmlns="http://www.w3.org/2000/svg" xmlns:svg="http://www.w3.org/2000/svg" xmlns:xlink="http://www.w3.org/1999/xlink" id="svg2" width="12" height="32" version="1.1"><defs id="defs4"><linearGradient id="linearGradient3800"><stop id="stop3802" offset="0" stop-color="#2d3135" stop-opacity="1"/><stop id="stop3804" offset="1" stop-color="#33393e" stop-opacity="1"/></linearGradient><linearGradient id="linearGradient3806" x1="3.688" x2="9.357" y1="1036.407" y2="1036.407" gradientTransform="translate(-2.217e-5,3.135e-5)" gradientUnits="userSpaceOnUse" xlink:href="#linearGradient3800"/></defs><metadata id="metadata7"/><g id="layer1" transform="translate(0,-1020.3622)"><rect id="rect3798" width="5.67" height="28.714" x="3.687" y="1022.05" fill="url(#linearGradient3806)" fill-opacity="1" ry="2.564"/><path id="rect3755" fill="#17191b" fill-opacity="1" d="m 6.5,1021.3622 c -1.939,0 -3.5,1.561 -3.5,3.5 l 0,23 c 0,1.939 1.561,3.5 3.5,3.5 1.939,0 3.5,-1.561 3.5,-3.5 l 0,-23 c 0,-1.939 -1.561,-3.5 -3.5,-3.5 z m 0,1 c 1.385,0 2.5,1.115 2.5,2.5 l 0,23 c 0,1.385 -1.115,2.5 -2.5,2.5 -1.385,0 -2.5,-1.115 -2.5,-2.5 l 0,-23 c 0,-1.385 1.115,-2.5 2.5,-2.5 z"/></g></svg>