<svg xmlns="http://www.w3.org/2000/svg" xmlns:svg="http://www.w3.org/2000/svg" xmlns:xlink="http://www.w3.org/1999/xlink" id="svg2" width="11" height="64" version="1.1"><defs id="defs4"><linearGradient id="linearGradient3761"><stop id="stop3763" offset="0" stop-color="#6b7e58" stop-opacity="1"/><stop id="stop3765" offset="1" stop-color="#3b4531" stop-opacity="1"/></linearGradient><linearGradient id="linearGradient3767-4" x1="27" x2="27" y1="3" y2="7" gradientTransform="matrix(0.96930804,0,0,1.5357143,1.9642857,-2.5892)" gradientUnits="userSpaceOnUse" xlink:href="#linearGradient3761-0"/><linearGradient id="linearGradient3761-0"><stop id="stop3763-5" offset="0" stop-color="#5a6a4a" stop-opacity="1"/><stop id="stop3765-6" offset="1" stop-color="#3f4a34" stop-opacity="1"/></linearGradient></defs><metadata id="metadata7"/><g id="layer1" transform="translate(0,-988.3622)"><path id="rect3809-7" fill="#fff" fill-opacity=".102" d="m 11,993.36216 c 0,-2.77 -2.23,-5 -5,-5 -2.77,0 -5,2.23 -5,5 l 0,54.00004 c 0,2.77 2.23,5 5,5 2.77,0 5,-2.23 5,-5 l 0,-54.00004 z m -1.0000001,0 0,54.00004 c 0,2.216 -1.7839999,4 -3.9999999,4 -2.216,0 -4,-1.784 -4,-4 l 0,-54.00004 c 0,-2.216 1.784,-4 4,-4 2.216,0 3.9999999,1.784 3.9999999,4 z"/><path id="rect3858" fill="#1b1e21" fill-opacity="1" d="m 8,993.36216 c 0,-1.662 -1.338,-3 -3,-3 -1.662,0 -3,1.338 -3,3 l 0,54.00004 c 0,1.662 1.338,3 3,3 1.662,0 3,-1.338 3,-3 l 0,-54.00004 z m -1,0 0,54.00004 c 0,1.108 -0.892,2 -2,2 -1.108,0 -2,-0.892 -2,-2 l 0,-54.00004 c 0,-1.108 0.892,-2 2,-2 1.108,0 2,0.892 2,2 z"/><path id="rect3809" fill="#1b1d19" fill-opacity="1" d="m 9.9999997,993.36216 c 0,-2.77 -2.2299997,-5 -4.9999997,-5 -2.77,0 -5,2.23 -5,5 l 0,54.00004 c 0,2.77 2.23,5 5,5 2.77,0 4.9999997,-2.23 4.9999997,-5 l 0,-54.00004 z m -0.9999997,0 0,54.00004 c 0,2.216 -1.784,4 -4,4 -2.216,0 -4,-1.784 -4,-4 l 0,-54.00004 c 0,-2.216 1.784,-4 4,-4 2.216,0 4,1.784 4,4 z"/><path id="rect3855" fill="#25292d" fill-opacity="1" d="m 9,993.36216 c 0,-2.216 -1.784,-4 -4,-4 -2.216,0 -4,1.784 -4,4 l 0,54.00004 c 0,2.216 1.784,4 4,4 2.216,0 4,-1.784 4,-4 l 0,-54.00004 z m -1,0 0,54.00004 c 0,1.662 -1.338,3 -3,3 -1.662,0 -3,-1.338 -3,-3 l 0,-54.00004 c 0,-1.662 1.338,-3 3,-3 1.662,0 3,1.338 3,3 z"/></g></svg>