<svg xmlns="http://www.w3.org/2000/svg" xmlns:svg="http://www.w3.org/2000/svg" xmlns:xlink="http://www.w3.org/1999/xlink" id="svg2" width="11" height="64" version="1.1"><defs id="defs4"><linearGradient id="linearGradient3761"><stop id="stop3763" offset="0" stop-color="#6b7e58" stop-opacity="1"/><stop id="stop3765" offset="1" stop-color="#3b4531" stop-opacity="1"/></linearGradient><linearGradient id="linearGradient3767-4" x1="27" x2="27" y1="3" y2="7" gradientTransform="matrix(0.96930804,0,0,1.5357143,1.9642857,-2.5892)" gradientUnits="userSpaceOnUse" xlink:href="#linearGradient3761-0"/><linearGradient id="linearGradient3761-0"><stop id="stop3763-5" offset="0" stop-color="#5a6a4a" stop-opacity="1"/><stop id="stop3765-6" offset="1" stop-color="#3f4a34" stop-opacity="1"/></linearGradient></defs><metadata id="metadata7"/><g id="layer1" transform="translate(0,-988.3622)"><g id="g3013" transform="matrix(0,-1,1,0,-1041.3614,1052.3622)"><path id="rect3809-9" fill="#fff" fill-opacity=".102" d="m 5,1041.3606 c -2.77,0 -5,2.4534 -5,5.5007 0,3.0475 2.23,5.5009 5,5.5009 l 54,0 c 2.77,0 5,-2.4534 5,-5.5009 0,-3.0473 -2.23,-5.5007 -5,-5.5007 l -54,0 z m 0,1.1001 54,0 c 2.216,0 4,1.9627 4,4.4006 0,2.4381 -1.784,4.4007 -4,4.4007 l -54,0 c -2.216,0 -4,-1.9626 -4,-4.4007 0,-2.4379 1.784,-4.4006 4,-4.4006 z"/><path id="rect3809" fill="#1b1d19" fill-opacity="1" d="m 5,1041.3622 c -2.77,0 -5,2.23 -5,5 0,2.77 2.23,5 5,5 l 54,0 c 2.77,0 5,-2.23 5,-5 0,-2.77 -2.23,-5 -5,-5 l -54,0 z m 0,1 54,0 c 2.216,0 4,1.784 4,4 0,2.216 -1.784,4 -4,4 l -54,0 c -2.216,0 -4,-1.784 -4,-4 0,-2.216 1.784,-4 4,-4 z"/></g></g></svg>