<svg xmlns="http://www.w3.org/2000/svg" xmlns:svg="http://www.w3.org/2000/svg" xmlns:xlink="http://www.w3.org/1999/xlink" id="svg2" width="64" height="16" version="1.1"><defs id="defs4"><linearGradient id="linearGradient3828"><stop id="stop3830" offset="0" stop-color="#fff" stop-opacity="1"/><stop id="stop3832" offset="1" stop-color="#f5f5f5" stop-opacity="1"/></linearGradient><linearGradient id="linearGradient3820"><stop id="stop3822" offset="0" stop-color="#e8e8e8" stop-opacity="1"/><stop id="stop3824" offset="1" stop-color="#fff" stop-opacity="1"/></linearGradient><linearGradient id="linearGradient3772"><stop id="stop3774" offset="0" stop-color="#fff" stop-opacity="1"/><stop id="stop3776" offset="1" stop-color="#e9e9e9" stop-opacity="1"/></linearGradient><linearGradient id="linearGradient3761"><stop id="stop3763" offset="0" stop-color="#586b7e" stop-opacity="1"/><stop id="stop3765" offset="1" stop-color="#313b45" stop-opacity="1"/></linearGradient><linearGradient id="linearGradient3767-4" x1="27" x2="27" y1="3" y2="7" gradientTransform="matrix(0.96930804,0,0,1.5357143,1.9642857,-2.5892)" gradientUnits="userSpaceOnUse" xlink:href="#linearGradient3761-0"/><linearGradient id="linearGradient3761-0"><stop id="stop3763-5" offset="0" stop-color="#4a5a6a" stop-opacity="1"/><stop id="stop3765-6" offset="1" stop-color="#343f4a" stop-opacity="1"/></linearGradient><linearGradient id="linearGradient3778" x1="29" x2="29" y1="7" y2="3" gradientTransform="translate(0,1038.3622)" gradientUnits="userSpaceOnUse" xlink:href="#linearGradient3772"/><linearGradient id="linearGradient3826" x1="31" x2="31" y1="1039.362" y2="1047.362" gradientUnits="userSpaceOnUse" xlink:href="#linearGradient3820"/><linearGradient id="linearGradient3834" x1="23" x2="23" y1="6" y2="4" gradientUnits="userSpaceOnUse" xlink:href="#linearGradient3828"/></defs><metadata id="metadata7"/><g id="layer1" transform="translate(0,-1036.3622)"><path id="rect3809-7" fill="#fff" fill-opacity=".745" d="m 5,1039.3622 c -2.77,0 -5,2.23 -5,5 0,2.77 2.23,5 5,5 l 54,0 c 2.77,0 5,-2.23 5,-5 0,-2.77 -2.23,-5 -5,-5 l -54,0 z m 0,1 54,0 c 2.216,0 4,1.784 4,4 0,2.216 -1.784,4 -4,4 l -54,0 c -2.216,0 -4,-1.784 -4,-4 0,-2.216 1.784,-4 4,-4 z"/><path id="rect3809" fill="#a6a9ac" fill-opacity="1" d="m 5,1038.3622 c -2.77,0 -5,2.23 -5,5 0,2.77 2.23,5 5,5 l 54,0 c 2.77,0 5,-2.23 5,-5 0,-2.77 -2.23,-5 -5,-5 l -54,0 z m 0,1 54,0 c 2.216,0 4,1.784 4,4 0,2.216 -1.784,4 -4,4 l -54,0 c -2.216,0 -4,-1.784 -4,-4 0,-2.216 1.784,-4 4,-4 z"/><path id="rect3855" fill="url(#linearGradient3826)" fill-opacity="1" d="m 5,1039.3622 c -2.216,0 -4,1.784 -4,4 0,2.216 1.784,4 4,4 l 54,0 c 2.216,0 4,-1.784 4,-4 0,-2.216 -1.784,-4 -4,-4 l -54,0 z m 0,1 54,0 c 1.662,0 3,1.338 3,3 0,1.662 -1.338,3 -3,3 l -54,0 c -1.662,0 -3,-1.338 -3,-3 0,-1.662 1.338,-3 3,-3 z"/><rect id="rect3818" width="60" height="6" x="2" y="4" fill="url(#linearGradient3834)" fill-opacity="1" ry="3" transform="translate(0,1036.3622)"/></g></svg>