<svg xmlns="http://www.w3.org/2000/svg" xmlns:svg="http://www.w3.org/2000/svg" xmlns:xlink="http://www.w3.org/1999/xlink" id="svg2985" width="14" height="16" version="1.1"><defs id="defs2987"><linearGradient id="linearGradient3814"><stop id="stop3816" offset="0" stop-color="#1b1d19" stop-opacity="1"/><stop id="stop3818" offset="1" stop-color="#1b1d19" stop-opacity="1"/></linearGradient><linearGradient id="linearGradient3806"><stop id="stop3808" offset="0" stop-color="#37404b" stop-opacity=".616"/><stop id="stop3810" offset="1" stop-color="#161a1e" stop-opacity=".441"/></linearGradient><linearGradient id="linearGradient3773"><stop id="stop3775" offset="0" stop-color="#5a6350" stop-opacity="1"/><stop id="stop3769" offset=".5" stop-color="#454c3d" stop-opacity="1"/><stop id="stop3777" offset="1" stop-color="#31362c" stop-opacity=".78"/></linearGradient><linearGradient id="linearGradient3779" x1="8" x2="8" y1="14" y2="2" gradientUnits="userSpaceOnUse" xlink:href="#linearGradient3773"/><linearGradient id="linearGradient3812" x1="8" x2="8" y1="10" y2="7" gradientUnits="userSpaceOnUse" xlink:href="#linearGradient3806"/><linearGradient id="linearGradient3820" x1="8" x2="8" y1="15" y2="1" gradientUnits="userSpaceOnUse" xlink:href="#linearGradient3814"/></defs><metadata id="metadata2990"/><g id="layer1"><path id="path3774" fill="#000" fill-opacity=".159" d="M 15,9 A 7,7 0 1 1 1,9 7,7 0 1 1 15,9 z" transform="translate(-1,-1)"/><path id="path3769" fill="url(#linearGradient3820)" fill-opacity="1" d="M 15,8 A 7,7 0 1 1 1,8 7,7 0 1 1 15,8 z" transform="translate(-1,-1)"/><path id="path3771" fill="url(#linearGradient3779)" fill-opacity="1" d="M 14,8 A 6,6 0 1 1 2,8 6,6 0 1 1 14,8 z" transform="translate(-1,-1)"/><path id="path3783" fill="#0d0f11" fill-opacity="1" d="M 11,8 A 3,3 0 1 1 5,8 3,3 0 1 1 11,8 z" transform="translate(-1,-1)"/><path id="path3785" fill="url(#linearGradient3812)" fill-opacity="1" d="M 10,8 A 2,2 0 1 1 6,8 2,2 0 1 1 10,8 z" transform="translate(-1,-1)"/></g></svg>