<svg xmlns="http://www.w3.org/2000/svg" xmlns:svg="http://www.w3.org/2000/svg" xmlns:xlink="http://www.w3.org/1999/xlink" id="svg2985" width="14" height="16" version="1.1"><defs id="defs2987"><linearGradient id="linearGradient3771"><stop id="stop3773" offset="0" stop-color="#c4e898" stop-opacity="1"/><stop id="stop3776" offset="1" stop-color="#79bb29" stop-opacity="1"/></linearGradient><linearGradient id="linearGradient3814"><stop id="stop3816" offset="0" stop-color="#1b1d19" stop-opacity="1"/><stop id="stop3818" offset="1" stop-color="#1b1d19" stop-opacity="1"/></linearGradient><linearGradient id="linearGradient3806"><stop id="stop3808" offset="0" stop-color="#94d645" stop-opacity="1"/><stop id="stop3810" offset="1" stop-color="#78ba29" stop-opacity="1"/></linearGradient><linearGradient id="linearGradient3773"><stop id="stop3775" offset="0" stop-color="#5a6350" stop-opacity="1"/><stop id="stop3769" offset=".5" stop-color="#454c3d" stop-opacity="1"/><stop id="stop3777" offset="1" stop-color="#31362c" stop-opacity=".78"/></linearGradient><linearGradient id="linearGradient3779" x1="9" x2="9" y1="2" y2="14" gradientUnits="userSpaceOnUse" xlink:href="#linearGradient3773"/><linearGradient id="linearGradient3812" x1="6" x2="10" y1="8" y2="8" gradientUnits="userSpaceOnUse" xlink:href="#linearGradient3806"/><linearGradient id="linearGradient3820" x1="8" x2="8" y1="15" y2="1" gradientUnits="userSpaceOnUse" xlink:href="#linearGradient3814"/><linearGradient id="linearGradient3778" x1="8" x2="8" y1="11" y2="5" gradientUnits="userSpaceOnUse" xlink:href="#linearGradient3771"/><radialGradient id="radialGradient4009" cx="8" cy="8" r="3" fx="8" fy="8" gradientUnits="userSpaceOnUse" xlink:href="#linearGradient3806-2"/><linearGradient id="linearGradient3806-2"><stop id="stop3808-1" offset="0" stop-color="#a9f845" stop-opacity="1"/><stop id="stop3810-0" offset="1" stop-color="#91f31c" stop-opacity="1"/></linearGradient><linearGradient id="linearGradient3990" x1="8" x2="8" y1="11" y2="5" gradientUnits="userSpaceOnUse" xlink:href="#linearGradient3806-2-7"/><linearGradient id="linearGradient3806-2-7"><stop id="stop3808-1-0" offset="0" stop-color="#8ad133" stop-opacity="1"/><stop id="stop3810-0-4" offset="1" stop-color="#89d133" stop-opacity="1"/></linearGradient><linearGradient id="linearGradient4031" x1="8" x2="8" y1="11" y2="5" gradientUnits="userSpaceOnUse" xlink:href="#linearGradient3806-2-7"/></defs><metadata id="metadata2990"/><g id="layer1"><path id="path3774" fill="#000" fill-opacity=".159" d="M 15,9 A 7,7 0 1 1 1,9 7,7 0 1 1 15,9 z" transform="translate(-1,-1)"/><path id="path3769" fill="url(#linearGradient3820)" fill-opacity="1" d="M 15,8 A 7,7 0 1 1 1,8 7,7 0 1 1 15,8 z" transform="translate(-1,-1)"/><path id="path3771" fill="url(#linearGradient3779)" fill-opacity="1" d="M 14,8 A 6,6 0 1 1 2,8 6,6 0 1 1 14,8 z" transform="translate(-1,-1)"/><path id="path3783-6-1" fill="url(#linearGradient4031)" fill-opacity="1" d="M 11,8 A 3,3 0 1 1 5,8 3,3 0 1 1 11,8 z" opacity=".25" transform="matrix(-1.3333333,0,0,-1.3333333,17.666667,17.666667)"/><path id="path3783-6" fill="url(#radialGradient4009)" fill-opacity="1" d="M 11,8 A 3,3 0 1 1 5,8 3,3 0 1 1 11,8 z" transform="matrix(-1,0,0,-1,15,15)"/></g></svg>