<svg xmlns="http://www.w3.org/2000/svg" xmlns:svg="http://www.w3.org/2000/svg" xmlns:xlink="http://www.w3.org/1999/xlink" id="svg2985" width="14" height="16" version="1.1"><defs id="defs2987"><linearGradient id="linearGradient3814"><stop id="stop3816" offset="0" stop-color="#676c64" stop-opacity="1"/><stop id="stop3818" offset="1" stop-color="#b0b4ae" stop-opacity="1"/></linearGradient><linearGradient id="linearGradient3806"><stop id="stop3808" offset="0" stop-color="#546272" stop-opacity="1"/><stop id="stop3810" offset="1" stop-color="#2f3740" stop-opacity="1"/></linearGradient><linearGradient id="linearGradient3773"><stop id="stop3775" offset="0" stop-color="#fff" stop-opacity="1"/><stop id="stop3769" offset=".5" stop-color="#f4f6f4" stop-opacity="1"/><stop id="stop3777" offset="1" stop-color="#c8cdc8" stop-opacity="1"/></linearGradient><linearGradient id="linearGradient3812" x1="8" x2="8" y1="10" y2="8" gradientUnits="userSpaceOnUse" xlink:href="#linearGradient3806"/></defs><metadata id="metadata2990"/><g id="layer1"><path id="path3769" fill="#a3a89e" fill-opacity="1" d="M 15,8 A 7,7 0 1 1 1,8 7,7 0 1 1 15,8 z" transform="translate(-1,0)"/><path id="path3771" fill="#f1f1f2" fill-opacity="1" d="M 14,8 A 6,6 0 1 1 2,8 6,6 0 1 1 14,8 z" transform="translate(-1,0)"/><path id="path3783" fill="#343c44" fill-opacity="1" d="M 11,8 A 3,3 0 1 1 5,8 3,3 0 1 1 11,8 z" opacity=".3" transform="translate(-1,0)"/></g></svg>