<svg xmlns="http://www.w3.org/2000/svg" xmlns:svg="http://www.w3.org/2000/svg" xmlns:xlink="http://www.w3.org/1999/xlink" id="svg2985" width="14" height="16" version="1.1"><defs id="defs2987"><linearGradient id="linearGradient3885"><stop id="stop3887" offset="0" stop-color="#788391" stop-opacity="1"/><stop id="stop3889" offset="1" stop-color="#444e3d" stop-opacity="1"/></linearGradient><linearGradient id="linearGradient3808"><stop id="stop3811" offset="0" stop-color="#3b414a" stop-opacity="1"/><stop id="stop3813" offset="1" stop-color="#22262b" stop-opacity="1"/></linearGradient><linearGradient id="linearGradient3814"><stop id="stop3816" offset="0" stop-color="#1b1d19" stop-opacity="1"/><stop id="stop3818" offset="1" stop-color="#1b1d19" stop-opacity="1"/></linearGradient><linearGradient id="linearGradient3806"><stop id="stop3808" offset="0" stop-color="#37404b" stop-opacity=".616"/><stop id="stop3810" offset="1" stop-color="#161a1e" stop-opacity=".441"/></linearGradient><linearGradient id="linearGradient3773"><stop id="stop3775" offset="0" stop-color="#59626e" stop-opacity="1"/><stop id="stop3769" offset=".5" stop-color="#444e3d" stop-opacity="1"/><stop id="stop3777" offset="1" stop-color="#31362c" stop-opacity=".78"/></linearGradient><linearGradient id="linearGradient3812" x1="8" x2="8" y1="10" y2="7" gradientUnits="userSpaceOnUse" xlink:href="#linearGradient3806"/><linearGradient id="linearGradient3779-3" x1="9" x2="9" y1="2" y2="14" gradientUnits="userSpaceOnUse" xlink:href="#linearGradient3773-4"/><linearGradient id="linearGradient3773-4"><stop id="stop3775-8" offset="0" stop-color="#59626e" stop-opacity="1"/><stop id="stop3769-8" offset=".5" stop-color="#444e3d" stop-opacity="1"/><stop id="stop3777-3" offset="1" stop-color="#31362c" stop-opacity=".78"/></linearGradient><linearGradient id="linearGradient3787" x1="9" x2="9" y1="2" y2="14" gradientUnits="userSpaceOnUse" xlink:href="#linearGradient3773-4"/><linearGradient id="linearGradient3815" x1="8" x2="8" y1="2" y2="13" gradientUnits="userSpaceOnUse" xlink:href="#linearGradient3808"/><linearGradient id="linearGradient3815-7" x1="8" x2="8" y1="2" y2="14" gradientUnits="userSpaceOnUse" xlink:href="#linearGradient3808-2"/><linearGradient id="linearGradient3808-2"><stop id="stop3811-1" offset="0" stop-color="#59626e" stop-opacity="1"/><stop id="stop3813-9" offset="1" stop-color="#444e3d" stop-opacity="1"/></linearGradient><linearGradient id="linearGradient3832" x1="8" x2="8" y1="2" y2="14" gradientUnits="userSpaceOnUse" xlink:href="#linearGradient3808-2"/><radialGradient id="radialGradient4009" cx="8" cy="8" r="3" fx="8" fy="8" gradientUnits="userSpaceOnUse" xlink:href="#linearGradient3806-2"/><linearGradient id="linearGradient3806-2"><stop id="stop3808-1" offset="0" stop-color="#a9f845" stop-opacity="1"/><stop id="stop3810-0" offset="1" stop-color="#91f31c" stop-opacity="1"/></linearGradient><linearGradient id="linearGradient3990" x1="8" x2="8" y1="11" y2="5" gradientUnits="userSpaceOnUse" xlink:href="#linearGradient3806-2-7"/><linearGradient id="linearGradient3806-2-7"><stop id="stop3808-1-0" offset="0" stop-color="#8ad133" stop-opacity="1"/><stop id="stop3810-0-4" offset="1" stop-color="#89d133" stop-opacity="1"/></linearGradient><linearGradient id="linearGradient3052" x1="8" x2="8" y1="11" y2="5" gradientUnits="userSpaceOnUse" xlink:href="#linearGradient3806-2-7"/></defs><metadata id="metadata2990"/><g id="layer1"><path id="path3774" fill="#000" fill-opacity=".159" d="M 15,9 A 7,7 0 1 1 1,9 7,7 0 1 1 15,9 z" transform="translate(-1,-1)"/><path id="path3771-6" fill="#4c545c" fill-opacity="1" d="M 14,8 A 6,6 0 1 1 2,8 6,6 0 1 1 14,8 z" transform="translate(-1,-1)"/><path id="path3771" fill="url(#linearGradient3815)" fill-opacity="1" d="M 14,8 A 6,6 0 1 1 2,8 6,6 0 1 1 14,8 z" transform="translate(-1,0)"/><path id="path3769" fill="#101112" fill-opacity="1" d="M 7,-4.2e-7 C 3.134007,-4.2e-7 0,3.1340064 0,6.9999996 0,10.865993 3.134007,14 7,14 10.865993,14 14,10.865993 14,6.9999996 14,3.1340064 10.865993,-4.2e-7 7,-4.2e-7 z M 7,0.9999996 c 3.313709,0 6,2.6862915 6,6 C 13,10.313708 10.313709,13 7,13 3.686292,13 1,10.313708 1,6.9999996 c 0,-3.3137085 2.686292,-6 6,-6 z"/><path id="path3783-6-1" fill="url(#linearGradient3052)" fill-opacity="1" d="M 11,8 A 3,3 0 1 1 5,8 3,3 0 1 1 11,8 z" opacity=".25" transform="matrix(-1.3333333,0,0,-1.3333333,17.666667,17.666667)"/><path id="path3783-6" fill="url(#radialGradient4009)" fill-opacity="1" d="M 11,8 A 3,3 0 1 1 5,8 3,3 0 1 1 11,8 z" transform="matrix(-1,0,0,-1,15,15)"/></g></svg>